<?xml version="1.0" encoding="UTF-8"?>
<svg id="Layer_2" data-name="Layer 2" xmlns="http://www.w3.org/2000/svg" viewBox="0 0 116.92 78.84">
  <defs>
    <style>
      .cls-1 {
        fill: none;
        stroke: black;
        stroke-width: 6px;
      }

      .cls-2 {
        fill: black;
      }
    </style>
  </defs>
  <g id="Layer_1-2" data-name="Layer 1">
    <g>
      <path class="cls-2" d="m105.29,39.51c0,8.35-1.42,15.96-4.27,22.81-3.43,8.28-7.91,13.42-13.43,15.42-1.43.5-2.7.81-3.81.92-1.11.12-3.56.18-7.35.18H30.83l-.37-14.24L5.58,11.47v67.37H0V0h6.5l24.26,51.55L54.42,0h22.51c4.59,0,8.04.39,10.36,1.16,5.72,1.89,10.34,7.16,13.86,15.82,2.76,6.82,4.14,14.33,4.14,22.53Z"/>
      <path class="cls-1" d="m107.75,14.84c4.11,7.39,6.17,15.53,6.17,24.42s-2.12,17.31-6.37,24.74"/>
    </g>
  </g>
</svg>